<svg width="212" height="211" viewBox="0 0 212 211" fill="none" xmlns="http://www.w3.org/2000/svg">
<rect width="212" height="211" rx="20" fill="#0B0A57"/>
<path fill-rule="evenodd" clip-rule="evenodd" d="M60.848 144.897C59.3984 145.24 59.1315 145.325 57.6147 145.065C55.665 144.731 53.4675 142.832 52.9683 140.727C52.616 139.24 52.5642 138.037 53.1431 136.644C53.2141 136.471 53.2679 136.347 53.3533 136.19C53.696 135.559 53.408 135.957 53.8928 135.303C54.0224 135.129 54.0762 135.043 54.2221 134.869C55.928 132.843 58.9818 132.123 61.3895 133.179C65.9139 135.165 66.369 140.904 63.0378 143.7C62.5136 144.139 61.7082 144.692 60.849 144.896L60.848 144.897ZM53.8429 132.514C52.7542 132.772 53.0941 132.166 51.7981 132.473C51.3306 132.584 51.152 132.874 50.9629 133.179C50.0787 134.611 52.0429 135.134 51.1271 136.622C50.625 137.437 49.8339 137.17 49.305 137.939C48.9085 138.515 49.0035 139.487 49.6026 139.992C49.8416 140.193 49.9856 140.218 50.2477 140.322C50.7104 140.508 51.1069 140.905 51.225 141.403C51.5235 142.662 50.2899 142.717 50.6336 144.169C50.8064 144.896 51.6282 145.452 52.5872 145.216C53.5693 144.975 54.3987 145.38 54.5898 146.184C54.7549 146.884 54.6147 147.386 55.0487 147.848C55.545 148.376 56.0298 148.468 56.7325 148.301C57.5389 148.11 57.4563 147.342 58.4192 147.113C60.2845 146.671 59.8016 148.885 61.8733 148.394C62.6375 148.212 62.8986 147.551 62.9495 146.883C63.0032 146.182 63.3546 145.548 64.1091 145.37C65.1363 145.126 64.7351 145.746 66.2154 145.396C66.6426 145.294 67.3203 144.52 67.1485 143.796C66.8749 142.643 66.4928 142.843 66.5543 141.997C66.5898 141.523 66.8029 141.163 67.1523 140.881C67.5546 140.556 68.0471 140.59 68.4205 140.177C69.1136 139.411 68.9418 138.054 67.7715 137.623C66.8576 137.287 66.4909 136.414 66.7338 135.636C67.0006 134.784 67.5469 134.962 67.2397 133.668C67.185 133.436 67.0688 133.267 66.9373 133.125C65.9351 132.038 64.9962 133.145 64.0794 132.598C62.985 131.945 63.3527 131.39 63.1722 130.629C62.9955 129.885 62.1719 129.357 61.2176 129.584C60.3325 129.794 60.5082 130.54 59.4685 130.786C58.7504 130.956 58.2656 130.65 57.8499 130.141C56.9725 129.067 55.7898 129.318 55.2752 130.056C54.7002 130.883 55.2099 131.1 54.6675 131.91C54.5178 132.133 54.1904 132.431 53.841 132.514H53.8429Z" fill="white"/>
<path fill-rule="evenodd" clip-rule="evenodd" d="M54.392 139.536C54.632 140.55 54.7097 141.116 55.4585 141.937C58.8675 145.676 64.5238 142.408 63.4429 137.849C62.9629 135.827 61.041 134.308 58.975 134.341C58.7206 134.345 58.2013 134.366 57.9709 134.421C56.7219 134.718 55.6486 135.568 55.1619 136.35C54.6368 137.193 54.1453 138.49 54.3929 139.536H54.392Z" fill="white"/>
<path d="M59.1574 88.1559H58.9683C58.3209 88.1559 57.7961 88.9901 57.7961 90.0192V126.572C57.7961 127.601 58.3209 128.436 58.9683 128.436H59.1574C59.8048 128.436 60.3296 127.601 60.3296 126.572V90.0192C60.3296 88.9901 59.8048 88.1559 59.1574 88.1559Z" fill="white"/>
<path fill-rule="evenodd" clip-rule="evenodd" d="M65.3965 44.3146C63.6157 44.3146 63.2826 44.3395 61.5901 43.6186C59.4148 42.6912 57.3824 39.8774 57.3824 37.2931C57.3824 35.4672 57.6541 34.0531 58.7111 32.593C58.8426 32.4115 58.9386 32.2819 59.0807 32.1235C59.6538 31.4832 59.2084 31.8672 59.9533 31.2403C60.152 31.0733 60.2384 30.9879 60.4554 30.8266C62.9984 28.9402 66.7482 28.944 69.2567 30.8371C73.9712 34.3949 72.9172 41.1946 68.2717 43.5274C67.5412 43.8941 66.4516 44.3146 65.3956 44.3146H65.3965ZM60.6647 27.9821C59.3284 27.9821 59.89 27.3715 58.2983 27.3715C57.7242 27.3715 57.4362 27.6576 57.1328 27.961C55.7092 29.3827 57.849 30.5338 56.3735 32.0102C55.5652 32.8205 54.7184 32.2906 53.8919 33.0384C53.2717 33.6 53.1143 34.7559 53.6711 35.5085C53.8929 35.809 54.0541 35.8762 54.3306 36.0701C54.8183 36.4128 55.1696 36.985 55.1696 37.5974C55.1696 39.143 53.7191 38.8666 53.7191 40.6502C53.7191 41.543 54.5216 42.4166 55.7024 42.407C56.9111 42.3974 57.7636 43.0982 57.7636 44.0851C57.7636 44.9434 57.4612 45.4886 57.8394 46.1462C58.2714 46.8979 58.809 47.1379 59.6721 47.1379C60.6628 47.1379 60.778 46.2221 61.9616 46.2221C64.2532 46.2221 63.08 48.6643 65.625 48.6643C66.5648 48.6643 67.0496 47.9664 67.2944 47.2042C67.5498 46.4045 68.1335 45.7642 69.0599 45.7642C70.3223 45.7642 69.6839 46.3747 71.5021 46.3747C72.0263 46.3747 73.0285 45.6615 73.0285 44.7715C73.0285 43.3546 72.5284 43.4823 72.8336 42.5165C73.0055 41.9741 73.353 41.6151 73.8368 41.3827C74.3946 41.1149 74.9581 41.2915 75.5053 40.9142C76.5229 40.2144 76.6976 38.5891 75.4554 37.7645C74.4858 37.1213 74.2996 36.0058 74.7968 35.1677C75.3421 34.2499 75.9287 34.607 75.9287 33.0173C75.9287 32.7331 75.8413 32.5056 75.7271 32.303C74.8621 30.7622 73.4634 31.7914 72.5485 30.9024C71.456 29.8406 72.0359 29.2973 72.0359 28.3622C72.0359 27.4483 71.2237 26.6064 70.0516 26.6064C68.9639 26.6064 68.962 27.5222 67.6852 27.5222C66.8029 27.5222 66.3229 27.0326 65.9802 26.3261C65.2564 24.8352 63.8116 24.7997 63.01 25.5168C62.1124 26.3194 62.6461 26.713 61.7917 27.505C61.5556 27.7238 61.0928 27.9792 60.6628 27.9792L60.6647 27.9821Z" fill="white"/>
<path fill-rule="evenodd" clip-rule="evenodd" d="M59.3668 36.3014C59.3668 37.5465 59.3006 38.2272 59.9447 39.3878C62.8785 44.6765 70.3569 42.4358 70.3569 36.8361C70.3569 34.3507 68.5396 32.0544 66.1281 31.5245C65.8315 31.4592 65.2218 31.3401 64.9386 31.3401C63.4046 31.3401 61.9214 32.0342 61.1399 32.808C60.297 33.6432 59.3668 35.016 59.3668 36.3014Z" fill="white"/>
<path d="M122.912 36.2858L122.912 36.0956C122.912 35.4485 121.962 34.9239 120.79 34.9239L79.1543 34.9239C77.9824 34.9239 77.0324 35.4485 77.0324 36.0956L77.0324 36.2858C77.0324 36.933 77.9824 37.4576 79.1543 37.4576L120.79 37.4576C121.962 37.4576 122.912 36.933 122.912 36.2858Z" fill="white"/>
<path fill-rule="evenodd" clip-rule="evenodd" d="M98.1162 116.091C95.359 116.745 94.8512 116.906 91.9664 116.411C88.2579 115.774 84.0781 112.163 83.1286 108.161C82.4576 105.333 82.3597 103.044 83.4608 100.395C83.5971 100.066 83.6979 99.8304 83.8611 99.5309C84.5139 98.329 83.9648 99.0864 84.8883 97.8442C85.135 97.512 85.2368 97.3488 85.5142 97.0195C88.759 93.1642 94.567 91.7942 99.1462 93.8045C107.753 97.5821 108.618 108.498 102.281 113.816C101.284 114.652 99.752 115.704 98.1171 116.091H98.1162ZM84.7914 92.5373C82.7216 93.0278 83.3667 91.8768 80.9034 92.4605C80.0144 92.6717 79.6736 93.2218 79.3155 93.8026C77.6336 96.5261 81.369 97.5226 79.6275 100.352C78.6733 101.902 77.167 101.392 76.1609 102.855C75.4073 103.952 75.5869 105.801 76.7274 106.762C77.1814 107.145 77.455 107.19 77.9542 107.389C78.8355 107.742 79.5881 108.498 79.8137 109.447C80.3811 111.84 78.0349 111.946 78.6896 114.707C79.0179 116.089 80.5808 117.146 82.4057 116.698C84.2739 116.239 85.8522 117.011 86.2141 118.539C86.5299 119.868 86.2611 120.824 87.0886 121.703C88.0333 122.708 88.9539 122.882 90.2902 122.565C91.8243 122.201 91.6669 120.74 93.4995 120.305C97.0467 119.464 96.1289 123.677 100.069 122.742C101.523 122.397 102.019 121.139 102.116 119.868C102.219 118.535 102.887 117.329 104.322 116.989C106.275 116.526 105.513 117.706 108.328 117.038C109.14 116.845 110.429 115.373 110.103 113.996C109.582 111.803 108.855 112.185 108.973 110.576C109.039 109.673 109.446 108.989 110.11 108.451C110.875 107.832 111.812 107.898 112.522 107.113C113.841 105.655 113.514 103.074 111.288 102.254C109.551 101.614 108.852 99.9562 109.315 98.4758C109.821 96.8544 110.861 97.1923 110.277 94.7309C110.173 94.2912 109.953 93.9706 109.703 93.6989C107.798 91.631 106.01 93.7373 104.267 92.6966C102.186 91.4544 102.884 90.3994 102.541 88.9507C102.205 87.5347 100.639 86.5306 98.8237 86.9616C97.1398 87.361 97.473 88.7798 95.4963 89.2483C94.1293 89.5728 93.2077 88.9901 92.4176 88.0233C90.7491 85.9805 88.4989 86.4566 87.5206 87.8621C86.4262 89.4336 87.3968 89.8483 86.3648 91.3872C86.0797 91.8134 85.4576 92.3779 84.7914 92.5353V92.5373Z" fill="white"/>
<path fill-rule="evenodd" clip-rule="evenodd" d="M87.8644 110.462C94.3492 117.575 105.108 111.358 103.052 102.687C102.139 98.8387 98.4829 95.951 94.5527 96.0154C86.912 96.1402 83.0058 105.133 87.8644 110.461V110.462Z" fill="white"/>
<path fill-rule="evenodd" clip-rule="evenodd" d="M54.2997 127.507V78.0854H64.0255V127.507C68.6518 129.419 71.9071 133.974 71.9071 139.29C71.9071 143.73 69.6367 147.639 66.1942 149.921H78.0684V119.895C76.303 119.85 74.9071 118.695 74.5673 117.262C73.7446 113.791 76.6937 113.658 75.9804 110.65C75.6982 109.457 74.7506 108.506 73.6428 108.063C73.0149 107.813 72.6713 107.755 72.1001 107.274C70.6668 106.068 70.4402 103.742 71.3877 102.364C72.6521 100.524 74.5452 101.166 75.7452 99.216C77.935 95.6592 73.2386 94.4074 75.3526 90.9831C75.8038 90.2525 76.231 89.5613 77.3494 89.2973C77.6162 89.2339 77.8534 89.1869 78.0665 89.1533V62.7024H77.2822C68.4578 69.4666 43.2866 66.3322 41.0239 48.4858V149.921H52.1302C48.6876 147.639 46.4172 143.73 46.4172 139.29C46.4172 133.974 49.6735 129.418 54.2997 127.506V127.507Z" fill="white"/>
<path fill-rule="evenodd" clip-rule="evenodd" d="M113.066 96.8611C112.484 98.7216 113.363 100.807 115.547 101.611C118.345 102.641 118.756 105.886 117.098 107.719C116.205 108.705 115.028 108.622 114.067 109.401C113.231 110.076 112.721 110.937 112.637 112.071C112.488 114.093 113.403 113.613 114.057 116.371C114.468 118.103 112.846 119.954 111.826 120.196C111.353 120.308 110.96 120.379 110.628 120.419V138.888C110.628 163.084 94.8176 165.7 78.1242 160.049L78.1664 195.468C113.315 203.172 151.427 189.665 151.427 147.793V18.6854L82.0102 18.8918C77.6586 14.6294 71.7008 12 65.1286 12C51.8029 12 41 22.8029 41 36.1286C41 49.4554 51.8029 60.2582 65.1286 60.2582C71.3139 60.2582 76.9549 57.9302 81.2249 54.1037H110.629V89.6726C111.583 89.5987 112.556 89.7706 113.556 90.8544C113.871 91.1962 114.146 91.5994 114.278 92.1523C115.011 95.2454 113.705 94.8211 113.067 96.8602L113.066 96.8611ZM135.004 41.8272H78.4851C76.2992 47.1178 71.0902 50.8406 65.0105 50.8406C56.9609 50.8406 50.4368 44.3155 50.4368 36.2659C50.4368 28.2163 56.9619 21.6922 65.0105 21.6922C71.0902 21.6922 76.3002 25.416 78.4861 30.7056H135.004V41.8272Z" fill="white"/>
<path d="M94.0431 109.426C93.2965 109.426 92.652 109.292 92.1097 109.025C91.5673 108.757 91.15 108.394 90.8576 107.936C90.5689 107.475 90.4245 106.961 90.4245 106.394C90.4245 105.971 90.509 105.596 90.678 105.268C90.8471 104.941 91.083 104.64 91.3859 104.365C91.6888 104.087 92.041 103.81 92.4425 103.536L94.5397 102.157C94.8109 101.984 95.0099 101.803 95.1367 101.613C95.2634 101.419 95.3268 101.21 95.3268 100.984C95.3268 100.769 95.2405 100.57 95.068 100.387C94.8954 100.204 94.6506 100.114 94.3337 100.118C94.1224 100.118 93.9392 100.165 93.7843 100.26C93.6293 100.352 93.5078 100.474 93.4198 100.625C93.3352 100.773 93.293 100.938 93.293 101.122C93.293 101.347 93.3564 101.576 93.4832 101.808C93.6099 102.041 93.779 102.287 93.9903 102.548C94.2016 102.805 94.4323 103.083 94.6823 103.383L99.8119 109.268H97.4663L93.1873 104.502C92.9056 104.182 92.6238 103.847 92.3421 103.499C92.0639 103.147 91.8314 102.773 91.6448 102.379C91.4581 101.981 91.3648 101.549 91.3648 101.085C91.3648 100.56 91.4863 100.088 91.7293 99.6688C91.9758 99.2497 92.321 98.9187 92.7647 98.6756C93.2085 98.4291 93.7262 98.3059 94.3178 98.3059C94.8954 98.3059 95.3937 98.4238 95.8128 98.6598C96.2355 98.8922 96.5595 99.2022 96.7849 99.5896C97.0138 99.9734 97.1282 100.396 97.1282 100.857C97.1282 101.368 97.0015 101.831 96.7479 102.247C96.4978 102.659 96.1457 103.029 95.6913 103.356L93.4832 104.946C93.1838 105.165 92.9619 105.388 92.8175 105.617C92.6767 105.843 92.6062 106.059 92.6062 106.267C92.6062 106.524 92.6696 106.755 92.7964 106.959C92.9232 107.163 93.1028 107.325 93.3352 107.445C93.5677 107.561 93.8406 107.619 94.1541 107.619C94.5344 107.619 94.9095 107.533 95.2793 107.36C95.6526 107.184 95.9907 106.936 96.2936 106.616C96.6 106.292 96.8447 105.908 97.0279 105.464C97.211 105.02 97.3026 104.529 97.3026 103.99H99.1674C99.1674 104.652 99.0952 105.249 98.9508 105.781C98.8064 106.309 98.6056 106.771 98.3486 107.165C98.0915 107.556 97.7974 107.876 97.4663 108.126C97.3607 108.193 97.2586 108.257 97.1599 108.317C97.0613 108.376 96.9592 108.44 96.8535 108.507C96.4521 108.831 96.003 109.065 95.5064 109.209C95.0134 109.354 94.5256 109.426 94.0431 109.426Z" fill="#0B0A57"/>
</svg>
